<svg xmlns="http://www.w3.org/2000/svg" xmlns:xlink="http://www.w3.org/1999/xlink" width="1920" zoomAndPan="magnify" viewBox="0 0 1440 809.999993" height="1080" preserveAspectRatio="xMidYMid meet" version="1.0"><defs><clipPath id="b335a972f6"><path d="M 664 289.800781 L 776 289.800781 L 776 410 L 664 410 Z M 664 289.800781 " clip-rule="nonzero"/></clipPath><clipPath id="c6c63f76da"><path d="M 615.023438 409 L 825 409 L 825 520.050781 L 615.023438 520.050781 Z M 615.023438 409 " clip-rule="nonzero"/></clipPath><clipPath id="6bda416b27"><path d="M 664 289.800781 L 776 289.800781 L 776 410 L 664 410 Z M 664 289.800781 " clip-rule="nonzero"/></clipPath><clipPath id="cdc6e6fa37"><path d="M 615.023438 409 L 825 409 L 825 520.050781 L 615.023438 520.050781 Z M 615.023438 409 " clip-rule="nonzero"/></clipPath></defs><g clip-path="url(#b335a972f6)"><path fill="#ffffff" d="M 719.996094 409.304688 C 750.835938 409.304688 775.921875 376.574219 775.921875 345.734375 C 775.921875 314.894531 750.835938 289.800781 719.996094 289.800781 C 689.152344 289.800781 664.0625 314.894531 664.0625 345.734375 C 664.070312 376.570312 689.15625 409.304688 719.996094 409.304688 Z M 719.996094 409.304688 " fill-opacity="1" fill-rule="nonzero"/></g><g clip-path="url(#c6c63f76da)"><path fill="#ffffff" d="M 761.980469 409.878906 C 751.132812 418.144531 737.597656 423.0625 722.9375 423.0625 L 717.050781 423.0625 C 702.386719 423.0625 688.851562 418.144531 678.003906 409.878906 C 642.582031 415.605469 615.53125 446.308594 615.53125 483.347656 C 615.53125 503.691406 662.300781 520.191406 719.996094 520.191406 C 777.6875 520.191406 824.457031 503.691406 824.457031 483.347656 C 824.457031 446.308594 797.40625 415.605469 761.980469 409.878906 Z M 761.980469 409.878906 " fill-opacity="1" fill-rule="nonzero"/></g><g clip-path="url(#6bda416b27)"><path fill="#ffffff" d="M 719.996094 409.304688 C 750.835938 409.304688 775.921875 376.574219 775.921875 345.734375 C 775.921875 314.894531 750.835938 289.800781 719.996094 289.800781 C 689.152344 289.800781 664.0625 314.894531 664.0625 345.734375 C 664.070312 376.570312 689.15625 409.304688 719.996094 409.304688 Z M 719.996094 409.304688 " fill-opacity="1" fill-rule="nonzero"/></g><g clip-path="url(#cdc6e6fa37)"><path fill="#ffffff" d="M 761.980469 409.878906 C 751.132812 418.144531 737.597656 423.0625 722.9375 423.0625 L 717.050781 423.0625 C 702.386719 423.0625 688.851562 418.144531 678.003906 409.878906 C 642.582031 415.605469 615.53125 446.308594 615.53125 483.347656 C 615.53125 503.691406 662.300781 520.191406 719.996094 520.191406 C 777.6875 520.191406 824.457031 503.691406 824.457031 483.347656 C 824.457031 446.308594 797.40625 415.605469 761.980469 409.878906 Z M 761.980469 409.878906 " fill-opacity="1" fill-rule="nonzero"/></g></svg>